<?xml version="1.0" encoding="utf-8"?>
<!-- Generator: Adobe Illustrator 19.1.0, SVG Export Plug-In . SVG Version: 6.00 Build 0)  -->
<svg version="1.1" xmlns="http://www.w3.org/2000/svg" xmlns:xlink="http://www.w3.org/1999/xlink" x="0px" y="0px"
	 viewBox="0 0 500 500" enable-background="new 0 0 500 500" xml:space="preserve">
<g id="Layer_2" display="none">
	<rect x="-118.891" y="-102.392" display="inline" fill="#3CAA35" width="785.961" height="697.465"/>
</g>
<g id="Layer_1">
	<path id="f_1_" display="none" fill="#010202" d="M288.71,500.001V271.927h76.557l11.461-88.885H288.71v-56.749
		c0-25.735,7.146-43.272,44.051-43.272l47.068-0.021V3.5c-8.144-1.082-36.082-3.502-68.587-3.502
		c-67.861,0-114.32,41.422-114.32,117.493v65.55H120.17v88.885h76.752v228.075H288.71z"/>
	<g>
		<path fill="#010202" d="M0.025,369.22l42.229,72.998l0.014,0.008c8.316,16.469,25.377,27.771,45.087,27.771l0.038-0.001
			l0.002,0.001h280.279L309.513,369.22H0.025z"/>
		<path fill="#010202" d="M499.975,369.739c0-10.093-2.973-19.485-8.074-27.374L327.657,56.851
			c-8.48-15.969-25.274-26.849-44.615-26.849h-86.8l253.696,439.562l39.99-69.265C497.817,387.032,499.975,381.162,499.975,369.739z
			"/>
		<polygon fill="#010202" points="268.149,297.615 154.758,101.216 41.367,297.615 		"/>
	</g>
	<polygon id="black_1_" display="none" fill="#010202" points="420.449,91.639 420.449,0.888 420.421,0.888 329.698,0.888 
		320.64,10.022 277.818,91.628 264.353,100.713 111.52,100.713 111.52,225.34 195.541,225.34 203.026,234.393 111.52,409.249 
		111.52,500 111.548,500 202.271,500 211.329,490.866 254.151,409.26 267.616,400.175 420.449,400.175 420.449,275.547 
		336.427,275.547 328.953,266.435 	"/>
	<g display="none">
		<g display="inline">
			<path fill="#010202" d="M249.673-0.416C111.372-0.416-0.745,111.699-0.745,250c0,106.087,66.004,196.7,159.159,233.187
				c-2.19-19.813-4.166-50.203,0.869-71.836c4.547-19.54,29.365-124.475,29.365-124.475s-7.492-14.997-7.492-37.174
				c0-34.819,20.184-60.815,45.312-60.815c21.365,0,31.685,16.041,31.685,35.274c0,21.485-13.679,53.608-20.74,83.374
				c-5.899,24.93,12.5,45.258,37.083,45.258c44.51,0,78.721-46.935,78.721-114.676c0-59.957-43.081-101.878-104.601-101.878
				c-71.25,0-113.073,53.444-113.073,108.673c0,21.523,8.291,44.602,18.636,57.147c2.045,2.481,2.344,4.653,1.735,7.18
				c-1.9,7.914-6.124,24.925-6.953,28.404c-1.093,4.583-3.631,5.554-8.375,3.348c-31.278-14.561-50.831-60.288-50.831-97.013
				c0-78.993,57.395-151.538,165.459-151.538c86.867,0,154.377,61.9,154.377,144.628c0,86.305-54.416,155.761-129.942,155.761
				c-25.377,0-49.23-13.183-57.395-28.756c0,0-12.557,47.815-15.599,59.529c-5.657,21.75-20.918,49.015-31.128,65.648
				c23.432,7.254,48.332,11.168,74.148,11.168c138.302,0,250.416-112.115,250.416-250.416
				C500.089,111.699,387.975-0.416,249.673-0.416z"/>
		</g>
	</g>
	<path display="none" fill="#010202" d="M499.758,133.585c-2.227,48.765-36.221,115.54-101.973,200.291
		c-67.979,88.528-125.494,132.791-172.544,132.791c-29.136,0-53.809-26.948-73.951-80.872
		c-13.457-49.422-26.904-98.843-40.362-148.267c-14.961-53.894-31.006-80.874-48.164-80.874c-3.74,0-16.826,7.888-39.238,23.596
		L0,149.886c24.678-21.724,49.019-43.445,72.969-65.198c32.91-28.491,57.617-43.477,74.082-44.991
		c38.916-3.745,62.866,22.906,71.856,79.952c9.712,61.553,16.436,99.837,20.215,114.82c11.216,51.067,23.555,76.567,37.041,76.567
		c10.464,0,26.182-16.563,47.144-49.683c20.938-33.128,32.154-58.335,33.667-75.647c2.983-28.589-8.237-42.92-33.667-42.92
		c-11.973,0-24.312,2.759-37.007,8.216c24.57-80.645,71.524-119.813,140.821-117.579C478.498,34.937,502.717,68.318,499.758,133.585
		z"/>
</g>
</svg>
